<svg width="34" height="34" viewBox="0 0 34 34" fill="none" xmlns="http://www.w3.org/2000/svg">
<path d="M17 3.06319C21.5391 3.06319 22.0768 3.08045 23.8693 3.16213C25.5268 3.23784 26.427 3.51475 27.0261 3.74757C27.8196 4.05596 28.3859 4.42438 28.9807 5.01925C29.5757 5.61412 29.944 6.18043 30.2524 6.97385C30.4853 7.57297 30.7622 8.47317 30.8379 10.1305C30.9195 11.9232 30.9368 12.4609 30.9368 17C30.9368 21.5393 30.9195 22.0769 30.8379 23.8695C30.7622 25.527 30.4853 26.427 30.2524 27.0261C29.944 27.8196 29.5756 28.386 28.9807 28.9809C28.3859 29.5758 27.8196 29.9442 27.0261 30.2524C26.427 30.4853 25.5268 30.7623 23.8693 30.8379C22.077 30.9197 21.5394 30.9369 17 30.9369C12.4605 30.9369 11.9228 30.9197 10.1305 30.8379C8.47304 30.7622 7.57297 30.4853 6.97385 30.2524C6.18043 29.9442 5.61398 29.5758 5.01912 28.9809C4.42425 28.3859 4.05583 27.8196 3.74757 27.0261C3.51475 26.4272 3.2377 25.527 3.16213 23.8695C3.08032 22.0769 3.06305 21.5393 3.06305 17C3.06305 12.4609 3.08032 11.9232 3.16213 10.1307C3.23784 8.47317 3.51475 7.57297 3.74757 6.97385C4.05583 6.18043 4.42425 5.61412 5.01912 5.01925C5.61412 4.42425 6.18043 4.05596 6.97385 3.74757C7.57284 3.51475 8.47304 3.23784 10.1305 3.16213C11.9231 3.08045 12.4607 3.06319 17 3.06319ZM17 0C12.383 0 11.8041 0.0195234 9.99095 0.102266C8.18138 0.184875 6.94556 0.472281 5.86434 0.8925C4.74632 1.32693 3.7983 1.90825 2.85321 2.85334C1.90812 3.79844 1.32693 4.74645 0.8925 5.86434C0.472148 6.9457 0.184875 8.18152 0.102266 9.99095C0.0195234 11.8041 0 12.383 0 17C0 21.617 0.0195234 22.1959 0.102266 24.009C0.184875 25.8186 0.472148 27.0544 0.8925 28.1357C1.3268 29.2535 1.90812 30.2017 2.85321 31.1468C3.7983 32.0919 4.74632 32.6731 5.86434 33.1075C6.9457 33.5279 8.18138 33.8151 9.99082 33.8977C11.8041 33.9805 12.383 34 17 34C21.617 34 22.1959 33.9805 24.009 33.8977C25.8185 33.8151 27.0543 33.5279 28.1355 33.1075C29.2535 32.6732 30.2016 32.0919 31.1467 31.1468C32.0918 30.2017 32.6731 29.2537 33.1075 28.1357C33.5277 27.0543 33.8151 25.8186 33.8977 24.0092C33.9805 22.1959 34 21.617 34 17C34 12.383 33.9805 11.8041 33.8977 9.99095C33.8151 8.18152 33.5277 6.94569 33.1075 5.86447C32.6731 4.74645 32.0918 3.79844 31.1467 2.85334C30.2016 1.90825 29.2535 1.3268 28.1357 0.8925C27.0543 0.472281 25.8185 0.184875 24.009 0.102266C22.1959 0.0195234 21.617 0 17 0ZM17 8.27023C12.1786 8.27023 8.27023 12.1789 8.27023 17C8.27023 21.8214 12.1786 25.7298 17 25.7298C21.8212 25.7298 25.7298 21.8214 25.7298 17C25.7298 12.1788 21.8212 8.27023 17 8.27023ZM17 22.6667C13.8704 22.6667 11.3333 20.1296 11.3333 17C11.3333 13.8704 13.8704 11.3333 17 11.3333C20.1296 11.3333 22.6667 13.8704 22.6667 17C22.6667 20.1296 20.1296 22.6667 17 22.6667ZM28.1145 7.92532C28.1145 9.0521 27.2013 9.96532 26.0745 9.96532C24.9479 9.96532 24.0345 9.0521 24.0345 7.92532C24.0345 6.79867 24.9479 5.88532 26.0745 5.88532C27.2013 5.88532 28.1145 6.79867 28.1145 7.92532Z" fill="black"/>
</svg>
